<svg xmlns="http://www.w3.org/2000/svg" xmlns:xlink="http://www.w3.org/1999/xlink" width="106px" height="22px" viewBox="0 0 106 22" version="1.1">
    <!-- Generator: Sketch 50 (54983) - http://www.bohemiancoding.com/sketch -->
    <title>Logo/Livelib/Horizontal</title>
    <desc>Created with Sketch.</desc>
    <defs>
        <linearGradient x1="100%" y1="0%" x2="0%" y2="100%" id="linearGradient-1">
            <stop stop-color="#3399FF" offset="0%"/>
            <stop stop-color="#0744D8" offset="100%"/>
        </linearGradient>
        <linearGradient x1="0.1953125%" y1="5.67078033%" x2="100%" y2="55.3334686%" id="linearGradient-2">
            <stop stop-color="#0722D8" stop-opacity="0" offset="0%"/>
            <stop stop-color="#0722D8" offset="100%"/>
        </linearGradient>
        <linearGradient x1="100%" y1="0%" x2="0%" y2="50%" id="linearGradient-3">
            <stop stop-color="#00CEFF" offset="0%"/>
            <stop stop-color="#00AFFF" offset="100%"/>
        </linearGradient>
        <linearGradient x1="0%" y1="0%" x2="100%" y2="50%" id="linearGradient-4">
            <stop stop-color="#0722D8" stop-opacity="0" offset="0%"/>
            <stop stop-color="#0722D8" offset="100%"/>
        </linearGradient>
    </defs>
    <g id="Symbols" stroke="none" stroke-width="1" fill="none" fill-rule="evenodd">
        <g id="UI/Header/User-search-typing" transform="translate(-16.000000, -21.000000)">
            <g id="header">
                <g id="Logo/Livelib/Horizontal" transform="translate(16.000000, 20.000000)">
                    <g id="logo" transform="translate(0.000000, 1.000000)">
                        <g id="Polygon-92">
                            <polygon fill="url(#linearGradient-1)" points="24 14.7189081 12 21.9243986 12 7.20549056 24 0"/>
                            <polygon fill="url(#linearGradient-2)" opacity="0.2" points="24 14.7189081 12 21.9243986 12 7.20549056"/>
                            <polygon fill="url(#linearGradient-3)" transform="translate(6.000000, 10.962199) scale(-1, 1) translate(-6.000000, -10.962199) " points="12 14.7189081 1.13686838e-11 21.9243986 1.13686838e-11 7.20549056 12 0"/>
                            <polygon fill="url(#linearGradient-4)" opacity="0.15" transform="translate(6.000000, 14.564945) scale(-1, 1) translate(-6.000000, -14.564945) " points="12 14.7189081 1.13686838e-11 21.9243986 1.13686838e-11 7.20549056"/>
                        </g>
                        <g id="livelib" transform="translate(33.000000, 0.000000)">
                            <path d="M11.072,18 L0.44,18 L0.44,1.2 L3.728,1.2 L3.728,15.072 L11.072,15.072 L11.072,18 Z M12.992,6 L16.112,6 L16.112,18 L12.992,18 L12.992,6 Z M12.536,2.616 C12.536,2.15199768 12.7079983,1.75600164 13.052,1.428 C13.3960017,1.09999836 13.871997,0.936 14.48,0.936 C15.088003,0.936 15.5799981,1.09999836 15.956,1.428 C16.3320019,1.75600164 16.52,2.15199768 16.52,2.616 C16.52,3.08000232 16.3320019,3.46799844 15.956,3.78 C15.5799981,4.09200156 15.088003,4.248 14.48,4.248 C13.871997,4.248 13.3960017,4.09200156 13.052,3.78 C12.7079983,3.46799844 12.536,3.08000232 12.536,2.616 Z M23.312,12.288 L23.72,14.136 L23.84,14.136 L24.176,12.24 L26.216,6 L29.576,6 L24.56,18.12 L22.664,18.12 L17.456,6 L21.08,6 L23.312,12.288 Z M40.04,16.968 C39.5599976,17.3520019 38.9080041,17.6759987 38.084,17.94 C37.2599959,18.2040013 36.3840046,18.336 35.456,18.336 C33.5199903,18.336 32.1040045,17.7720056 31.208,16.644 C30.3119955,15.5159944 29.864,13.9680098 29.864,12 C29.864,9.88798944 30.367995,8.30400528 31.376,7.248 C32.384005,6.19199472 33.7999909,5.664 35.624,5.664 C36.232003,5.664 36.8239971,5.7439992 37.4,5.904 C37.9760029,6.0640008 38.4879978,6.32799816 38.936,6.696 C39.3840022,7.06400184 39.7439986,7.55999688 40.016,8.184 C40.2880014,8.80800312 40.424,9.58399536 40.424,10.512 C40.424,10.8480017 40.4040002,11.2079981 40.364,11.592 C40.3239998,11.9760019 40.2640004,12.3759979 40.184,12.792 L32.984,12.792 C33.0320002,13.800005 33.2919976,14.5599974 33.764,15.072 C34.2360024,15.5840026 34.9999947,15.84 36.056,15.84 C36.7120033,15.84 37.2999974,15.740001 37.82,15.54 C38.3400026,15.339999 38.7359986,15.136001 39.008,14.928 L40.04,16.968 Z M35.576,8.16 C34.7599959,8.16 34.156002,8.40399756 33.764,8.892 C33.371998,9.38000244 33.1360004,10.0319959 33.056,10.848 L37.52,10.848 C37.5840003,9.98399568 37.4520016,9.32000232 37.124,8.856 C36.7959984,8.39199768 36.2800035,8.16 35.576,8.16 Z" id="LiveLib.ru" fill="#0768D8"/>
                            <path d="M53.336,18 L42.704,18 L42.704,1.2 L45.992,1.2 L45.992,15.072 L53.336,15.072 L53.336,18 Z M55.256,6 L58.376,6 L58.376,18 L55.256,18 L55.256,6 Z M54.8,2.616 C54.8,2.15199768 54.9719983,1.75600164 55.316,1.428 C55.6600017,1.09999836 56.135997,0.936 56.744,0.936 C57.352003,0.936 57.8439981,1.09999836 58.22,1.428 C58.5960019,1.75600164 58.784,2.15199768 58.784,2.616 C58.784,3.08000232 58.5960019,3.46799844 58.22,3.78 C57.8439981,4.09200156 57.352003,4.248 56.744,4.248 C56.135997,4.248 55.6600017,4.09200156 55.316,3.78 C54.9719983,3.46799844 54.8,3.08000232 54.8,2.616 Z M61.424,1.2 L64.544,1.2 L64.544,6.96 L64.64,6.96 C64.9760017,6.57599808 65.4079974,6.27200112 65.936,6.048 C66.4640026,5.82399888 67.0479968,5.712 67.688,5.712 C69.1280072,5.712 70.2279962,6.20399508 70.988,7.188 C71.7480038,8.17200492 72.128,9.67198992 72.128,11.688 C72.128,13.8480108 71.5960053,15.4879944 70.532,16.608 C69.4679947,17.7280056 68.0080093,18.288 66.152,18.288 C65.1279949,18.288 64.1920042,18.2040008 63.344,18.036 C62.4959958,17.8679992 61.8560022,17.680001 61.424,17.472 L61.424,1.2 Z M66.776,8.352 C66.1999971,8.352 65.7320018,8.49999852 65.372,8.796 C65.0119982,9.09200148 64.736001,9.5199972 64.544,10.08 L64.544,15.312 C64.8000013,15.4400006 65.0759985,15.5279998 65.372,15.576 C65.6680015,15.6240002 65.9839983,15.648 66.32,15.648 C67.1680042,15.648 67.8119978,15.3400031 68.252,14.724 C68.6920022,14.1079969 68.912,13.1280067 68.912,11.784 C68.912,9.49598856 68.2000071,8.352 66.776,8.352 Z" id="LiveLib.ru" fill="#00AFFF"/>
                        </g>
                    </g>
                </g>
            </g>
        </g>
    </g>
</svg>
