<svg width="24" height="24" viewBox="0 0 24 24" fill="none" xmlns="http://www.w3.org/2000/svg">
<g>
<path fill-rule="evenodd" clip-rule="evenodd" d="M4 5C3.44772 5 3 5.44772 3 6V18C3 18.5523 3.44772 19 4 19H20C20.5523 19 21 18.5523 21 18V6C21 5.44772 20.5523 5 20 5H4Z" stroke="#39424C" stroke-width="2"/>
<path fill-rule="evenodd" clip-rule="evenodd" d="M5.05261 18.3209L10.0719 12.6732L10.5762 13.1853C10.5889 13.1981 10.5889 13.1981 10.6017 13.2108C11.3908 13.9837 12.657 13.9706 13.43 13.1816L13.9275 12.6736L18.9474 18.321C18.8136 18.7158 18.44 19 18 19H6C5.55998 19 5.18633 18.7158 5.05261 18.3209Z" stroke="#39424C" stroke-width="2"/>
<path fill-rule="evenodd" clip-rule="evenodd" d="M3.06348 5.64453L10.5854 13.1723C10.5858 13.1726 10.5858 13.1726 10.5861 13.173C11.3674 13.9538 12.6337 13.9535 13.4145 13.1724L20.9365 5.64453C20.7948 5.26793 20.4312 5 20.005 5H3.995C3.56883 5 3.20523 5.26793 3.06348 5.64453Z" stroke="#39424C" stroke-width="2"/>
</g>
</svg>
