<svg fill="none" version="1.1" viewBox="0 0 42 42" xmlns="http://www.w3.org/2000/svg">
 <g transform="translate(-8,-8)">
  <rect x="9" y="9" width="40" height="40" rx="20" fill="#fff"/>
  <rect x="8.5" y="8.5" width="41" height="41" rx="20.5" stroke="#fff"/>
 </g>
 <mask id="a" x="8" y="8" width="42" height="42" mask-type="alpha" maskUnits="userSpaceOnUse">
  <rect x="8.5" y="8.5" width="41" height="41" rx="20.5" fill="#fff" stroke="#fff"/>
 </mask>
 <g transform="translate(-8,-8)" mask="url(#a)">
  <path d="m29 29c4.4183 0 8-3.5817 8-8s-3.5817-8-8-8-8 3.5817-8 8 3.5817 8 8 8zm0 39c7.732 0 14-8.2827 14-18.5s-6.268-18.5-14-18.5-14 8.2827-14 18.5 6.268 18.5 14 18.5z" clip-rule="evenodd" fill="#39424c" fill-opacity=".16" fill-rule="evenodd"/>
 </g>
</svg>
