<svg width="296" height="32" viewBox="0 0 296 32" fill="none" xmlns="http://www.w3.org/2000/svg">
    <path fill-rule="evenodd" clip-rule="evenodd" d="M296 12C296 18.6274 290.627 24 284 24C277.373 24 272 18.6274 272 12C272 5.37258 277.373 -2.34843e-07 284 -5.24537e-07C290.627 -8.1423e-07 296 5.37258 296 12ZM295 12C295 18.0751 290.075 23 284 23C277.925 23 273 18.0751 273 12C273 5.92487 277.925 1 284 0.999999C290.075 0.999999 295 5.92487 295 12ZM288.097 8.31815L283.225 13.1906L280.973 10.9393C280.387 10.3535 279.438 10.3535 278.852 10.9393C278.266 11.5251 278.266 12.4748 278.852 13.0606L282.161 16.3696C282.704 16.9125 283.559 16.9523 284.148 16.4889C284.204 16.4469 284.257 16.4006 284.308 16.3498L290.218 10.4395C290.804 9.85368 290.804 8.90394 290.218 8.31815C289.632 7.73236 288.683 7.73236 288.097 8.31815Z" fill="white"/>
    <path fill-rule="evenodd" clip-rule="evenodd" d="M272 16C272 24.8366 264.837 32 256 32C247.163 32 240 24.8366 240 16C240 7.16345 247.163 3.50157e-06 256 3.11531e-06C264.837 4.63641e-06 272 7.16345 272 16ZM271 16C271 24.2843 264.284 31 256 31C247.716 31 241 24.2843 241 16C241 7.71573 247.716 1 256 1C264.284 1 271 7.71573 271 16ZM248.211 14.289C248.992 13.508 250.258 13.508 251.039 14.289L254.682 17.9319L261.981 10.633C262.762 9.85194 264.028 9.85194 264.809 10.633C265.59 11.414 265.59 12.6804 264.809 13.4614L256.176 22.0944C256.151 22.1224 256.125 22.1499 256.099 22.1767C255.318 22.9578 254.051 22.9578 253.27 22.1767L248.211 17.1175C247.43 16.3364 247.43 15.0701 248.211 14.289Z" fill="white"/>
    <path fill-rule="evenodd" clip-rule="evenodd" d="M228 24C234.627 24 240 18.6274 240 12C240 5.37258 234.627 -8.1423e-07 228 -5.24537e-07C221.373 -2.34843e-07 216 5.37258 216 12C216 18.6274 221.373 24 228 24ZM228 19.9999C227.172 19.9999 226.5 19.3284 226.5 18.4999L226.5 13.5L221.5 13.5C220.672 13.5 220 12.8284 220 12C220 11.1716 220.672 10.5 221.5 10.5L226.5 10.5L226.5 5.49993C226.5 4.67151 227.172 3.99994 228 3.99994C228.828 3.99993 229.5 4.67151 229.5 5.49994L229.5 10.5L234.5 10.5C235.328 10.5 236 11.1716 236 12C236 12.8284 235.328 13.5 234.5 13.5L229.5 13.5L229.5 18.4999C229.5 19.3284 228.828 19.9999 228 19.9999Z" fill="white"/>
    <path fill-rule="evenodd" clip-rule="evenodd" d="M200 32C208.837 32 216 24.8366 216 16C216 7.16345 208.837 2.72906e-06 200 1.20797e-06C191.163 1.59422e-06 184 7.16345 184 16C184 24.8366 191.163 32 200 32ZM200 27C198.895 27 198 26.1046 198 25L198 18L191 18C189.895 18 189 17.1046 189 16C189 14.8954 189.895 14 191 14L198 14L198 7.00001C198 5.89544 198.895 5.00001 200 5.00001C201.105 5.00001 202 5.89545 202 7.00002L202 14L209 14C210.105 14 211 14.8954 211 16C211 17.1046 210.105 18 209 18L202 18L202 25C202 26.1046 201.105 27 200 27Z" fill="white"/>
    <path fill-rule="evenodd" clip-rule="evenodd" d="M176 3C172.818 3 170.101 5.07333 169 8C170.101 10.9267 172.818 13 176 13C179.182 13 181.899 10.9267 183 8C181.899 5.07333 179.182 3 176 3ZM176 4C173.273 4 170.944 5.65867 170 8C170.944 10.3413 173.273 12 176 12C178.727 12 181.056 10.3413 182 8C181.056 5.65867 178.727 4 176 4ZM179 8.00007C179 9.65696 177.657 11.0001 176 11.0001C174.343 11.0001 173 9.65696 173 8.00007C173 6.34318 174.343 5 176 5C177.657 5 179 6.34318 179 8.00007ZM178 8C178 9.10457 177.105 10 176 10C174.895 10 174 9.10457 174 8C174 6.89543 174.895 6 176 6C177.105 6 178 6.89543 178 8Z" fill="#898B8C"/>
    <path fill-rule="evenodd" clip-rule="evenodd" d="M156 5C151 5 146.73 7.90267 145 12C146.73 16.0973 151 19 156 19C161 19 165.27 16.0973 167 12C165.27 7.90267 161 5 156 5ZM156 6C151.455 6 147.573 8.488 146 12C147.573 15.512 151.455 18 156 18C160.545 18 164.427 15.512 166 12C164.427 8.488 160.545 6 156 6ZM161 12C161 14.7614 158.761 17 156 17C153.239 17 151 14.7614 151 12C151 9.23858 153.239 7 156 7C158.761 7 161 9.23858 161 12ZM160 12C160 14.2091 158.209 16 156 16C153.791 16 152 14.2091 152 12C152 9.79086 153.791 8 156 8C158.209 8 160 9.79086 160 12Z" fill="#898B8C"/>
    <path fill-rule="evenodd" clip-rule="evenodd" d="M138 7C139.105 7 140 6.10457 140 5C140 3.89543 139.105 3 138 3C136.895 3 136 3.89543 136 5C136 6.10457 136.895 7 138 7ZM138 8C139.657 8 141 6.65685 141 5C141 3.34315 139.657 2 138 2C136.343 2 135 3.34315 135 5C135 5.44593 135.097 5.86914 135.272 6.24955L128.409 10.2118C127.862 9.47642 126.987 9 126 9C124.343 9 123 10.3431 123 12C123 13.6569 124.343 15 126 15C126.888 15 127.685 14.6144 128.235 14.0015L135.169 18.005C135.06 18.3164 135 18.6512 135 19C135 20.6569 136.343 22 138 22C139.657 22 141 20.6569 141 19C141 17.3431 139.657 16 138 16C137.05 16 136.203 16.4414 135.654 17.1302L128.769 13.1555C128.918 12.7999 129 12.4095 129 12C129 11.6879 128.952 11.3869 128.864 11.1039L135.836 7.07825C136.382 7.6464 137.15 8 138 8ZM138 21C139.105 21 140 20.1046 140 19C140 17.8954 139.105 17 138 17C136.895 17 136 17.8954 136 19C136 20.1046 136.895 21 138 21ZM128 12C128 13.1046 127.105 14 126 14C124.895 14 124 13.1046 124 12C124 10.8954 124.895 10 126 10C127.105 10 128 10.8954 128 12Z" fill="#252626"/>
    <path fill-rule="evenodd" clip-rule="evenodd" d="M112.547 18C112.547 18 105.5 18 103 18C100.5 18 99 16.5 99 14C99 11.5 99 9.5 99 7C99 4.5 100.5 3 103 3C105.5 3 110.5 3 113 3C115.5 3 117 4.5 117 7C117 9.5 117 20 117 20C117 21.3672 115.566 21.0156 115.273 20.7266C114.98 20.4375 114.214 19.6667 112.547 18ZM100 7C100 8.75 100 12.0326 100 14C100 15.7344 101.25 17 103 17H113L116 20V7C116 5.25 114.734 4 113 4H103C101.234 4 100 5.25 100 7Z" fill="#252626"/>
    <path d="M76 22V3H92V22L84 14L76 22Z" fill="#3E99ED"/>
    <path fill-rule="evenodd" clip-rule="evenodd" d="M68 22V3H52V22L60 14L68 22ZM53 19.5858L60 12.5858L67 19.5858V4H53V19.5858Z" fill="#252626"/>
    <path fill-rule="evenodd" clip-rule="evenodd" d="M33 21H42C42.83 21 43.54 20.5 43.84 19.78L46.86 12.73C46.95 12.5 47 12.26 47 12V9.99998C47 8.89998 46.1 7.99998 45 7.99998H38.69L39.64 3.42998L39.67 3.10998C39.67 2.69998 39.5 2.31998 39.23 2.04998C39.23 2.04998 38.4603 1.14719 37.4843 2.04999C36.5083 2.95279 31.58 7.58998 31.58 7.58998C31.22 7.94998 31 8.44998 31 8.99998V19C31 20.1 31.9 21 33 21ZM25.9998 21H26.9996C28.1714 21 28.9996 20.1133 28.9996 19L29 10C29 8.85156 28.1719 8 27 8H26.0002C24.8439 8 24.0002 8.85937 24.0002 10L23.9998 19C23.9998 20.125 24.8591 21 25.9998 21Z" fill="#3E99ED"/>
    <path fill-rule="evenodd" clip-rule="evenodd" d="M18 21H8.99998C7.89998 21 6.99998 20.1 6.99998 19V8.99998C6.99998 8.44998 7.21998 7.94998 7.57998 7.58998C7.57998 7.58998 12.5084 2.95279 13.4844 2.04999C14.4603 1.14719 15.23 2.04998 15.23 2.04998C15.5 2.31998 15.67 2.69998 15.67 3.10998L15.64 3.42998L14.69 7.99998H21C22.1 7.99998 23 8.89998 23 9.99998V12C23 12.26 22.95 12.5 22.86 12.73L19.84 19.78C19.54 20.5 18.83 21 18 21ZM9.0781 7.58998C8.50229 8.11494 7.99998 8.65627 7.99998 9.1875V19C7.99998 19.6094 8.43748 20 8.99998 20H18C18.375 20 18.8107 19.6016 19.0781 19C19.7508 17.4863 20.4533 15.8265 20.9257 14.7103C21.1555 14.1674 21.3309 13.7531 21.4219 13.5469C21.6998 12.9168 22 12.0781 22 11.4688V9.99998C22 9.57813 21.6875 8.99998 21 8.99998H14.375C13.685 8.99998 13.3348 8.54995 13.4844 7.99998C13.6537 7.37735 13.9297 6.25574 14.1761 5.2547C14.3431 4.57612 14.4965 3.95294 14.5937 3.57813C14.8345 2.65039 14.3414 2.56226 13.7656 3.10998C13.2462 3.60406 12.6564 4.17449 12.0545 4.75666C10.9938 5.7825 9.89549 6.84478 9.0781 7.58998ZM1.99976 21H2.99957C4.17144 21 4.99957 20.1133 4.99957 19L4.99998 10C4.99998 8.85156 4.17186 8 2.99998 8H2.00017C0.843917 8 0.000166893 8.85938 0.000166893 10L-0.000244141 19C-0.000247531 20.125 0.859131 21 1.99976 21ZM0.999756 19L1.00017 10C1.00017 9.5 1.50017 9 2.00017 9H2.99998C3.49998 9 3.99998 9.5 3.99998 10L3.99957 19C3.99957 19.5 3.49957 20 2.99957 20H1.99976C1.49976 20 0.999756 19.5 0.999756 19Z" fill="#252626"/>
</svg>