<svg xmlns="http://www.w3.org/2000/svg" xmlns:xlink="http://www.w3.org/1999/xlink">
            <symbol id="icon-star" viewBox="0 0 21 21">
              <g>
                <path clip-rule="evenodd" d="M13.7302 6.67338L12.1838 3.00017C11.8446 2.19444 11.2342 1.8125 10.4998 1.8125C9.76551 1.8125 9.14898 2.20884 8.81585 3.00017L7.26951 6.67338L3.68739 6.98284C2.81378 7.05831 1.8513 7.30214 1.64053 8.21875C1.42976 9.13536 1.66082 9.70947 2.35676 10.3167L5.27311 12.8612L4.50047 16.2547C4.30215 17.1257 4.17143 18.1562 4.9683 18.7031C5.76518 19.25 6.75889 18.9576 7.54651 18.4788L10.4998 16.6834L13.4558 18.4788C14.2389 18.9544 15.1719 19.2656 16.0469 18.7031C16.9219 18.1406 16.7155 17.1418 16.5106 16.2547L15.7266 12.8612L18.6429 10.3167C19.3231 9.72319 19.5606 9.05427 19.3279 8.21875C19.0952 7.38323 18.1787 7.05768 17.3123 6.98284L13.7302 6.67338ZM9.85889 3.3906L8.05634 7.70897L3.7506 8.08412C3.37809 8.11658 2.88856 8.17252 2.78884 8.60938C2.68911 9.04623 2.87545 9.21883 3.14338 9.4546L6.54138 12.4447L5.60644 16.5861C5.60223 16.6048 5.59775 16.6243 5.5931 16.6446C5.51078 17.0029 5.37478 17.595 5.73428 17.8125C6.11959 18.0457 6.44491 17.8586 6.76227 17.6642L10.5077 15.3699L14.2531 17.6642C14.5736 17.8606 14.9734 18.0801 15.3436 17.8125C15.676 17.5722 15.5578 17.1152 15.4634 16.75C15.4486 16.6927 15.4344 16.6377 15.4226 16.5861L14.474 12.4447L17.8719 9.4546C18.1528 9.2074 18.3229 9.01302 18.2498 8.57812C18.1787 8.1547 17.697 8.11765 17.3522 8.09114C17.3218 8.0888 17.2925 8.08655 17.2647 8.08412L12.959 7.70897L11.1565 3.3906C11.0341 3.0974 10.8955 2.77344 10.4996 2.77344C10.1157 2.77344 9.98894 3.0781 9.87004 3.36385C9.86632 3.37279 9.8626 3.38171 9.85889 3.3906Z"/>
              </g>
            </symbol>
            <symbol id="icon-like" viewBox="0 0 24 24">
              <g>
                <path fill-rule="evenodd" clip-rule="evenodd" d="M18.0002 20.9999H9.00022C7.90022 20.9999 7.00022 20.0999 7.00022 18.9999V8.99992C7.00022 8.44992 7.22022 7.94992 7.58022 7.58992C7.58022 7.58992 12.5086 2.95273 13.4846 2.04993C14.4606 1.14713 15.2302 2.04992 15.2302 2.04992C15.5002 2.31992 15.6702 2.69992 15.6702 3.10992L15.6402 3.42992L14.6902 7.99992H21.0002C22.1002 7.99992 23.0002 8.89992 23.0002 9.99992V11.9999C23.0002 12.2599 22.9502 12.4999 22.8602 12.7299L19.8402 19.7799C19.5402 20.4999 18.8302 20.9999 18.0002 20.9999ZM9.07835 7.58992C8.50253 8.11488 8.00022 8.65621 8.00022 9.18744V18.9999C8.00022 19.6093 8.43772 19.9999 9.00022 19.9999H18.0002C18.3752 19.9999 18.8109 19.6016 19.0783 18.9999C19.7511 17.4863 20.4536 15.8264 20.926 14.7103C21.1558 14.1673 21.3311 13.753 21.4221 13.5468C21.7001 12.9167 22.0002 12.0781 22.0002 11.4687V9.99992C22.0002 9.57806 21.6877 8.99992 21.0002 8.99992H14.3752C13.6852 8.99992 13.335 8.54989 13.4846 7.99992C13.6539 7.37729 13.93 6.25568 14.1763 5.25464C14.3433 4.57606 14.4967 3.95288 14.594 3.57806C14.8347 2.65033 14.3416 2.5622 13.7658 3.10992C13.2464 3.604 12.6566 4.17443 12.0547 4.75659C10.9941 5.78244 9.89573 6.84472 9.07835 7.58992ZM2 20.9999H2.99981C4.17169 20.9999 4.99981 20.1132 4.99981 18.9999L5.00022 9.99994C5.00022 8.8515 4.1721 7.99994 3.00022 7.99994H2.00041C0.844161 7.99994 0.000411034 8.85931 0.000411034 9.99994L0 18.9999C-3.39e-06 20.1249 0.859375 20.9999 2 20.9999ZM1 18.9999L1.00041 9.99994C1.00041 9.49994 1.50041 8.99994 2.00041 8.99994H3.00022C3.50022 8.99994 4.00022 9.49994 4.00022 9.99994L3.99981 18.9999C3.99981 19.4999 3.49981 19.9999 2.99981 19.9999H2C1.5 19.9999 1 19.4999 1 18.9999Z"/>
              </g>
            </symbol>
            <symbol id="icon-comment" viewBox="0 0 24 24">
              <g>
                <path fill-rule="evenodd" clip-rule="evenodd" d="M16.5469 18C16.5469 18 9.5 18 7 18C4.5 18 3 16.5 3 14C3 11.5 3 9.5 3 7C3 4.5 4.5 3 7 3C9.5 3 14.5 3 17 3C19.5 3 21 4.5 21 7C21 9.5 21 20 21 20C21 21.3672 19.5664 21.0156 19.2734 20.7266C18.9805 20.4375 18.2135 19.6667 16.5469 18ZM4 7C4 8.75 4 12.0326 4 14C4 15.7344 5.25 17 7 17H17L20 20V7C20 5.25 18.7344 4 17 4H7C5.23438 4 4 5.25 4 7Z"/>
              </g>
            </symbol>
            <symbol id="icon-heart" viewBox="0 0 24 24">
              <g>
                <path fill-rule="evenodd" clip-rule="evenodd" d="M16.5 3C14.76 3 13.09 4.72 12 6C10.91 4.72 9.24 3 7.5 3C4.42 3 2 5.42 2 8.5C2 11.9963 4.94678 14.8136 9.2058 18.8854C9.78126 19.4356 10.3807 20.0086 11 20.6094C11 20.6094 11.3828 21.0156 12 21.0156C12.6172 21.0156 13 20.6094 13 20.6094C13.5819 20.0442 14.1693 19.487 14.7505 18.9357C18.5077 15.3717 22 12.0589 22 8.5C22 5.42 19.58 3 16.5 3ZM12.1048 7.2868C12.0688 7.32792 12.0338 7.36778 12 7.40625C11.9662 7.36778 11.9312 7.32792 11.8952 7.2868C10.8848 6.13502 9.01202 4 7.5 4C4.728 4 3 6.11008 3 8.79564C3 11.5167 6.00349 14.4663 9.91359 18.3062C10.2713 18.6574 10.6366 19.0161 11.0078 19.3828C11.0078 19.3828 11.4766 19.9062 12.0156 19.9062C12.5547 19.9062 12.9688 19.3828 12.9688 19.3828C13.4051 18.9548 13.832 18.5393 14.2474 18.135C18.1309 14.3556 21 11.5634 21 8.79564C21 6.11008 19.272 4 16.5 4C14.988 4 13.1152 6.13502 12.1048 7.2868Z"/>
              </g>
            </symbol>
            <symbol id="icon-share" viewBox="0 0 24 24">
              <g>
                <path fill-rule="evenodd" clip-rule="evenodd" d="M18 7C19.1046 7 20 6.10457 20 5C20 3.89543 19.1046 3 18 3C16.8954 3 16 3.89543 16 5C16 6.10457 16.8954 7 18 7ZM18 8C19.6569 8 21 6.65685 21 5C21 3.34315 19.6569 2 18 2C16.3431 2 15 3.34315 15 5C15 5.44593 15.0973 5.86914 15.2718 6.24955L8.40903 10.2118C7.86227 9.47642 6.98677 9 6 9C4.34315 9 3 10.3431 3 12C3 13.6569 4.34315 15 6 15C6.88775 15 7.68545 14.6144 8.23472 14.0015L15.1689 18.005C15.0595 18.3164 15 18.6512 15 19C15 20.6569 16.3431 22 18 22C19.6569 22 21 20.6569 21 19C21 17.3431 19.6569 16 18 16C17.0502 16 16.2035 16.4414 15.6538 17.1302L8.76938 13.1555C8.91794 12.7999 9 12.4095 9 12C9 11.6879 8.95233 11.3869 8.86387 11.1039L15.8365 7.07825C16.3824 7.6464 17.1499 8 18 8ZM18 21C19.1046 21 20 20.1046 20 19C20 17.8954 19.1046 17 18 17C16.8954 17 16 17.8954 16 19C16 20.1046 16.8954 21 18 21ZM8 12C8 13.1046 7.10457 14 6 14C4.89543 14 4 13.1046 4 12C4 10.8954 4.89543 10 6 10C7.10457 10 8 10.8954 8 12Z"/>
              </g>                  
            </symbol>
            <symbol id="icon-book" viewBox="0 0 24 24">
              <g>
                <path fill-rule="evenodd" clip-rule="evenodd" d="M10 21H9C8.39205 21 7.864 20.7514 7.50339 20.3489C7.14749 20.75 6.6222 21 6 21H5C3.85937 21 3 20.125 3 19V8C3 6.85938 3.84375 6 5 6H6C6.37348 6 6.71203 6.08649 7 6.24152V4C7 2.85938 7.84375 2 9 2H10C11.1719 2 12 2.85156 12 4V4.24692C12.2893 4.08869 12.6285 4 13 4H14C15.1719 4 16 4.85156 16 6V8.24692C16.2893 8.0887 16.6285 8 17 8H18C19.1719 8 20 8.85156 20 10V19C20 20.1133 19.1719 21 18 21H17C16.3921 21 15.864 20.7514 15.5034 20.3489C15.1475 20.75 14.6222 21 14 21H13C12.3921 21 11.864 20.7514 11.5034 20.3489C11.1475 20.75 10.6222 21 10 21ZM8 8V19C8 19.5 8.5 20 9 20H10C10.5 20 11 19.5 11 19L11 6L11 5.99636V4C11 3.5 10.5 3 10 3H9C8.5 3 8 3.5 8 4V8ZM7 7.99811C6.99874 7.49874 6.49937 7 6 7H5C4.5 7 4 7.5 4 8V19C4 19.5 4.5 20 5 20H6C6.5 20 7 19.5 7 19V7.99811ZM13 20C12.5 20 12 19.5 12 19V6C12 5.5 12.5 5 13 5H14C14.5 5 15 5.5 15 6V19C15 19.5 14.5 20 14 20H13ZM17 20C16.5 20 16 19.5 16 19V10C16 9.5 16.5 9 17 9H18C18.5 9 19 9.5 19 10V19C19 19.5 18.5 20 18 20H17Z"/>
              </g>    
            </symbol>
            <symbol id="icon-bookmark" viewBox="0 0 24 24">
              <g>
                <path fill-rule="evenodd" clip-rule="evenodd" d="M20 22V3H4V22L12 14L20 22ZM5 19.5858L12 12.5858L19 19.5858V4H5V19.5858Z"/>
              </g>
            </symbol>
            <symbol id="icon-people" viewBox="0 0 18 18">
              <g>
                <path fill-rule="evenodd" clip-rule="evenodd" d="M9 5.25C9 6.9 7.65 8.25 6 8.25C4.35 8.25 3 6.9 3 5.25C3 3.6 4.35 2.25 6 2.25C7.65 2.25 9 3.6 9 5.25ZM0 14.625C0 11.25 3.75 9.75 6 9.75C8.25 9.75 12 11.25 12 14.625V15C12 15.8262 11.3057 16.5 10.5 16.5H1.5C0.682617 16.5 0 15.8203 0 15V14.625ZM13.5 8.17105C14.7375 8.17105 15.75 7.17632 15.75 5.96053C15.75 4.74474 14.7375 3.75 13.5 3.75C12.2625 3.75 11.25 4.74474 11.25 5.96053C11.25 7.17632 12.2625 8.17105 13.5 8.17105ZM13.5 9.27632C12.6225 9.27632 11.4409 9.57516 10.5087 10.2117C11.9075 11.0688 13.0127 12.3972 13.0753 14.25H16.875C17.4793 14.25 18 13.7535 18 13.1447V12.8684C18 10.3816 15.1875 9.27632 13.5 9.27632Z" fill="white"/>
              </g>
            </symbol>
            <symbol id="icon-user" viewBox="0 0 24 24">
              <g>
                <path fill-rule="evenodd" clip-rule="evenodd" d="M16 7C16 9.2 14.2 11 12 11C9.8 11 8 9.2 8 7C8 4.8 9.8 3 12 3C14.2 3 16 4.8 16 7ZM4 19.5C4 17.2516 5.24828 15.6261 6.875 14.5625C8.49997 13.5 10.5 13 12 13C13.5 13 15.5 13.5 17.125 14.5625C18.7517 15.6261 20 17.2516 20 19.5V20C20 21.0989 19.0769 22 18 22H6C4.90978 22 4 21.0934 4 20V19.5ZM12 10C13.6477 10 15 8.64772 15 7C15 5.35228 13.6477 4 12 4C10.3523 4 9 5.35228 9 7C9 8.64772 10.3523 10 12 10ZM7.42225 15.3995C5.99195 16.3347 5 17.6805 5 19.5V20C5 20.5402 5.46117 21 6 21H18C18.5308 21 19 20.5404 19 20V19.5C19 17.6805 18.0081 16.3347 16.5778 15.3995C15.1244 14.4492 13.3166 14 12 14C10.6834 14 8.87563 14.4492 7.42225 15.3995Z"/>
              </g>
            </symbol>
            <symbol id="icon-list" viewBox="0 0 24 24">
              <g>
                <path fill-rule="evenodd" clip-rule="evenodd" d="M7 22C5.85938 22 5 21.125 5 20V4C5 2.85937 5.84375 2 7 2H12.3242C12.8203 2 13.25 2.24219 13.6289 2.62891C13.6289 2.62891 18.0781 7.06641 18.4375 7.4375C18.7969 7.80859 19 8.20312 19 8.69922L19 20C19 21.1133 18.1719 22 17 22H7ZM6 4V20C6 20.5 6.5 21 7 21H17C17.5 21 18 20.5 18 20V9H14C12.8594 9 12 8.125 12 7V3H7C6.5 3 6 3.5 6 4ZM17.5822 7.95294C17.5973 7.96866 17.612 7.98434 17.6262 8H14C13.5 8 13 7.5 13 7V3.37409C13.016 3.38898 13.0322 3.40431 13.0486 3.42011C13.0486 3.42011 17.2738 7.63244 17.5822 7.95294ZM8.5 11C8.22386 11 8 11.2239 8 11.5C8 11.7761 8.22386 12 8.5 12H15.5C15.7761 12 16 11.7761 16 11.5C16 11.2239 15.7761 11 15.5 11H8.5ZM8 14.5C8 14.2239 8.22386 14 8.5 14H15.5C15.7761 14 16 14.2239 16 14.5C16 14.7761 15.7761 15 15.5 15H8.5C8.22386 15 8 14.7761 8 14.5ZM8.5 17C8.22386 17 8 17.2239 8 17.5C8 17.7761 8.22386 18 8.5 18H15.5C15.7761 18 16 17.7761 16 17.5C16 17.2239 15.7761 17 15.5 17H8.5Z"/>
              </g>
            </symbol>
            <symbol id="icon-quote" viewBox="0 0 24 24">
              <g>
                <path fill-rule="evenodd" clip-rule="evenodd" d="M23 12.5C23 18.299 18.299 23 12.5 23C6.70101 23 2 18.299 2 12.5C2 6.70101 6.70101 2 12.5 2C18.299 2 23 6.70101 23 12.5ZM22 12.5C22 17.7467 17.7467 22 12.5 22C7.25329 22 3 17.7467 3 12.5C3 7.25329 7.25329 3 12.5 3C17.7467 3 22 7.25329 22 12.5ZM16.8392 11.3737C16.8392 11.7518 16.758 12.84 15.8451 13.8487C14.9322 14.8575 13.9419 15.5442 13.7699 15.4995C13.5979 15.4548 13.4505 15.294 13.4326 15.0796C13.423 14.9638 13.5793 14.8312 13.7959 14.6475L13.7959 14.6475C13.9804 14.491 14.2087 14.2973 14.4155 14.0453C14.865 13.4975 15.0251 13.2136 14.8399 13.1563C13.9017 12.8659 13.2003 12.2678 13.2003 11.2821C13.2003 10.2964 13.9994 9.49733 14.9851 9.49733C15.9708 9.49733 16.7543 10.3774 16.8392 11.3737ZM11.8466 11.3748C11.8466 11.7529 11.7654 12.8411 10.8525 13.8498C9.9396 14.8586 8.94933 15.5453 8.77733 15.5006C8.60533 15.4559 8.4579 15.2951 8.44003 15.0807C8.43038 14.9649 8.58668 14.8323 8.8033 14.6486C8.98783 14.4921 9.21612 14.2984 9.4229 14.0464C9.87243 13.4986 10.0325 13.2147 9.84731 13.1574C8.90913 12.867 8.20772 12.2689 8.20772 11.2832C8.20772 10.2975 9.0068 9.49843 9.99251 9.49843C10.9782 9.49843 11.7617 10.3785 11.8466 11.3748Z"/>
              </g>
            </symbol>
            <symbol id="icon-view" viewBox="0 0 16 16">
              <g>
                <path fill="#898B8C" fill-rule="evenodd" clip-rule="evenodd" d="M8 3C4.81818 3 2.10091 5.07333 1 8C2.10091 10.9267 4.81818 13 8 13C11.1818 13 13.8991 10.9267 15 8C13.8991 5.07333 11.1818 3 8 3ZM8 4C5.27273 4 2.94364 5.65867 2 8C2.94364 10.3413 5.27273 12 8 12C10.7273 12 13.0564 10.3413 14 8C13.0564 5.65867 10.7273 4 8 4ZM11.0001 8.00007C11.0001 9.65696 9.65697 11.0001 8.00007 11.0001C6.34318 11.0001 5 9.65696 5 8.00007C5 6.34318 6.34318 5 8.00007 5C9.65697 5 11.0001 6.34318 11.0001 8.00007ZM10 8C10 9.10457 9.10457 10 8 10C6.89543 10 6 9.10457 6 8C6 6.89543 6.89543 6 8 6C9.10457 6 10 6.89543 10 8Z"/>
              </g>
            </symbol>
            <symbol id="icon-submit" viewBoxviewBox="0 0 19 19">
              <g>
                <path fill-rule="evenodd" clip-rule="evenodd" d="M18.9709 0.640669C19.0352 0.465643 18.991 0.269496 18.8577 0.138339C18.7245 0.00718278 18.5266 -0.0350067 18.3509 0.0302923L0.31216 6.73398C0.130584 6.80145 0.00761691 6.97065 0.000340601 7.16302C-0.00693574 7.35539 0.102903 7.53327 0.278871 7.61408L7.83298 11.0833L11.4609 18.7262C11.5436 18.9005 11.7237 19.0083 11.9175 18.9995C12.1113 18.9907 12.2808 18.8672 12.3472 18.6862L18.9709 0.640669ZM8.0294 10.1219L1.72677 7.2274L16.4579 1.75292L8.0294 10.1219ZM8.74348 10.7627L11.8389 17.2838L17.3803 2.18688L8.74348 10.7627Z" fill="white"/>
              </g>
            </symbol>

            <symbol id="icon-vk" viewBox="0 0 24 24">
              <g>
                <path fill-rule="evenodd" clip-rule="evenodd" d="M0 12C0 5.3725 5.3725 0 12 0C18.6275 0 24 5.3725 24 12C24 18.6275 18.6275 24 12 24C5.3725 24 0 18.6275 0 12Z" fill="#4C6C91"/>
                <path fill-rule="evenodd" clip-rule="evenodd" d="M12.6641 15.7186C12.6641 15.7186 12.9077 15.6924 13.0326 15.5617C13.147 15.4419 13.1428 15.2165 13.1428 15.2165C13.1428 15.2165 13.1275 14.1653 13.63 14.0073C14.125 13.8541 14.7609 15.0261 15.4352 15.4769C15.945 15.8174 16.3315 15.7432 16.3315 15.7432L18.1341 15.7186C18.1341 15.7186 19.0768 15.6621 18.6297 14.9403C18.5928 14.8812 18.3687 14.4064 17.2895 13.4304C16.1585 12.409 16.3104 12.5743 17.6717 10.805C18.501 9.72916 18.8321 9.07175 18.7261 8.7909C18.6276 8.52207 18.0176 8.59373 18.0176 8.59373L15.9883 8.60575C15.9883 8.60575 15.838 8.58588 15.7262 8.65073C15.6171 8.71454 15.5464 8.86307 15.5464 8.86307C15.5464 8.86307 15.2254 9.69569 14.7972 10.4038C13.8936 11.8975 13.5324 11.9781 13.3848 11.8844C13.041 11.6679 13.1265 11.0152 13.1265 10.5518C13.1265 9.10365 13.3521 8.50011 12.6873 8.34373C12.4669 8.29143 12.3045 8.25744 11.7398 8.25168C11.0154 8.24436 10.4033 8.2543 10.0559 8.41957C9.82495 8.5294 9.64675 8.77521 9.75536 8.78933C9.88927 8.80659 10.193 8.86882 10.3543 9.08221C10.562 9.35783 10.5552 9.97654 10.5552 9.97654C10.5552 9.97654 10.6748 11.681 10.2757 11.8928C10.0026 12.0382 9.62724 11.7417 8.82163 10.3861C8.40881 9.69203 8.09722 8.92426 8.09722 8.92426C8.09722 8.92426 8.03712 8.78096 7.92956 8.70356C7.79934 8.61046 7.61797 8.58117 7.61797 8.58117L5.6899 8.5932C5.6899 8.5932 5.39992 8.60105 5.29395 8.72343C5.19957 8.83221 5.28657 9.05763 5.28657 9.05763C5.28657 9.05763 6.79655 12.4974 8.50582 14.2306C10.0738 15.8195 11.8532 15.7154 11.8532 15.7154H12.6599" fill="white"/>
              </g>
            </symbol>
            <symbol id="icon-fb" viewBox="0 0 24 24">
              <g>
                <path fill-rule="evenodd" clip-rule="evenodd" d="M0 12C0 5.3725 5.3725 0 12 0C18.6275 0 24 5.3725 24 12C24 18.6275 18.6275 24 12 24C5.3725 24 0 18.6275 0 12Z" fill="#3B5998"/>
                <path fill-rule="evenodd" clip-rule="evenodd" d="M12.8518 18.6549V12.1249H14.6538L14.8928 9.8749H12.8518L12.8548 8.7489C12.8548 8.1619 12.9108 7.8479 13.7533 7.8479H14.8798V5.5979H13.0773C10.9123 5.5979 10.1503 6.6894 10.1503 8.5249V9.8759H8.80078V12.1259H10.1503V18.6559H12.8513" fill="white"/>
              </g>
            </symbol>
            <symbol id="icon-google" viewBox="0 0 24 24">
              <g>
                <path fill-rule="evenodd" clip-rule="evenodd" d="M0 12C0 5.3725 5.3725 0 12 0C18.6275 0 24 5.3725 24 12C24 18.6275 18.6275 24 12 24C5.3725 24 0 18.6275 0 12Z" fill="#DC4E41"/>
                <path fill-rule="evenodd" clip-rule="evenodd" d="M12.1387 11.4536V13.3668H15.2164C15.0921 14.1876 14.2862 15.7742 12.1387 15.7742C10.2861 15.7742 8.77384 14.1957 8.77384 12.2509C8.77384 10.3061 10.2853 8.72767 12.1387 8.72767C13.1933 8.72767 13.8982 9.19019 14.3018 9.58887L15.775 8.13007C14.8291 7.22117 13.604 6.67126 12.1394 6.67126C9.13909 6.67126 6.71289 9.16597 6.71289 12.2508C6.71289 15.3356 9.13969 17.8303 12.1394 17.8303C15.2711 17.8303 17.3489 15.5668 17.3489 12.3783C17.3489 12.0119 17.3098 11.7329 17.2636 11.454H12.1391" fill="white"/>
              </g>
            </symbol>
            <symbol id="icon-mail" viewBox="0 0 24 24">
              <g>
                <path d="M11.9998 23.5525C18.3802 23.5525 23.5524 18.3803 23.5524 12C23.5524 5.61965 18.3802 0.447388 11.9998 0.447388C5.61953 0.447388 0.447266 5.61965 0.447266 12C0.447266 18.3803 5.61953 23.5525 11.9998 23.5525Z" fill="#0077CC"/>
                <path fill-rule="evenodd" clip-rule="evenodd" d="M11.7747 8.36759C12.7643 8.36759 13.6946 8.80475 14.3777 9.48959V9.49217C14.3777 9.16348 14.599 8.91575 14.9063 8.91575L14.984 8.915C15.4645 8.915 15.563 9.36982 15.563 9.51392L15.5656 14.626C15.5315 14.9605 15.9107 15.133 16.1211 14.9187C16.9421 14.0753 17.924 10.582 15.6109 8.55814C13.4551 6.67123 10.5624 6.98225 9.02402 8.04251C7.38869 9.17042 6.34226 11.6664 7.35879 14.0108C8.46677 16.5686 11.6376 17.3309 13.5221 16.5705C14.4766 16.1854 14.9174 17.4754 13.9262 17.8969C12.4286 18.5352 8.26066 18.4709 6.31361 15.0979C4.99811 12.8204 5.06815 8.81309 8.55701 6.73676C11.2261 5.14887 14.7449 5.5886 16.8668 7.80462C19.0848 10.1213 18.9556 14.4592 16.7921 16.1465C15.8118 16.9125 14.356 16.1665 14.3652 15.0499L14.3552 14.6848C13.6726 15.3623 12.7643 15.7574 11.7747 15.7574C9.81963 15.7574 8.09927 14.0368 8.09927 12.0825C8.09918 10.1077 9.81958 8.36759 11.7747 8.36759ZM14.2353 11.9408C14.1617 10.5093 13.0991 9.64831 11.8158 9.64831H11.7674C10.2866 9.64831 9.46526 10.8129 9.46526 12.1356C9.46526 13.6168 10.459 14.5526 11.7618 14.5526C13.2144 14.5526 14.1696 13.4884 14.2386 12.2298L14.2353 11.9408Z" fill="white"/>
              </g>
            </symbol>
            <symbol id="icon-tw" viewBox="0 0 24 24">
              <g>
                <path fill-rule="evenodd" clip-rule="evenodd" d="M0 12C0 5.3725 5.3725 0 12 0C18.6275 0 24 5.3725 24 12C24 18.6275 18.6275 24 12 24C5.3725 24 0 18.6275 0 12Z" fill="#55ACEE"/>
                <path fill-rule="evenodd" clip-rule="evenodd" d="M11.641 9.75411L11.666 10.1691L11.2465 10.1181C9.719 9.92311 8.384 9.26211 7.251 8.15211L6.697 7.60111L6.5545 8.00811C6.2525 8.91461 6.4455 9.87261 7.075 10.5181C7.411 10.8741 7.335 10.9251 6.756 10.7131C6.5545 10.6451 6.3785 10.5946 6.3615 10.6201C6.3025 10.6796 6.504 11.4506 6.6635 11.7556C6.8815 12.1791 7.3265 12.5946 7.8135 12.8401L8.225 13.0351L7.738 13.0436C7.268 13.0436 7.251 13.0521 7.3015 13.2301C7.4695 13.7811 8.1325 14.3656 8.871 14.6196L9.3915 14.7976L8.938 15.0686C8.2665 15.4586 7.4775 15.6786 6.6885 15.6956C6.311 15.7041 6 15.7381 6 15.7636C6 15.8481 7.024 16.3231 7.62 16.5091C9.408 17.0601 11.5315 16.8226 13.125 15.8821C14.258 15.2126 15.3915 13.8821 15.92 12.5941C16.2055 11.9076 16.491 10.6536 16.491 10.0521C16.491 9.66211 16.516 9.61161 16.986 9.14561C17.263 8.87461 17.523 8.57761 17.5735 8.49311C17.6575 8.33211 17.649 8.33211 17.221 8.47611C16.5075 8.73011 16.407 8.69661 16.7595 8.31511C17.0195 8.04411 17.3305 7.55261 17.3305 7.40861C17.3305 7.38311 17.2045 7.42561 17.062 7.50161C16.911 7.58611 16.575 7.71361 16.3235 7.78961L15.87 7.93361L15.4585 7.65411C15.232 7.50161 14.913 7.33211 14.745 7.28111C14.317 7.16261 13.662 7.17961 13.276 7.31511C12.227 7.69661 11.5635 8.67961 11.639 9.75561" fill="white"/>
              </g>                  
            </symbol>
            <symbol id="icon-ok" viewBox="0 0 24 24">
              <g>
                <path fill-rule="evenodd" clip-rule="evenodd" d="M0 12C0 5.3725 5.3725 0 12 0C18.6275 0 24 5.3725 24 12C24 18.6275 18.6275 24 12 24C5.3725 24 0 18.6275 0 12Z" fill="#F58223"/>
                <path fill-rule="evenodd" clip-rule="evenodd" d="M15.7521 8.53491C15.7521 10.5764 14.0674 12.2269 12.0034 12.2269C9.9305 12.2269 8.25458 10.5764 8.25458 8.5436C8.25458 6.50212 9.9305 4.85156 12.0034 4.85156C14.0674 4.85156 15.7433 6.50212 15.7521 8.53491ZM13.5558 8.5436C13.5558 7.70094 12.859 7.01466 12.0034 7.01466C11.1478 7.01466 10.4509 7.70094 10.4509 8.5436C10.4509 9.38625 11.1478 10.0725 12.0034 10.0725C12.859 10.0725 13.5558 9.38625 13.5558 8.5436ZM15.6904 14.3553C15.0112 14.7723 14.2703 15.0677 13.5117 15.2414L15.611 17.3003C16.0432 17.7259 16.0432 18.4035 15.611 18.8292C15.1788 19.2549 14.4908 19.2549 14.0586 18.8292L11.9945 16.8051L9.93933 18.8292C9.72763 19.0377 9.44537 19.142 9.16311 19.142C8.88085 19.142 8.59859 19.0377 8.38689 18.8292C7.95468 18.4035 7.95468 17.7259 8.38689 17.3003L10.4862 15.2327C9.71881 15.059 8.9867 14.7636 8.3075 14.3466C7.79591 14.0339 7.64596 13.365 7.95468 12.8611C8.28104 12.3573 8.96023 12.2009 9.47183 12.5223C11.0066 13.4692 12.9825 13.4692 14.5172 12.5223C15.0377 12.2009 15.708 12.3573 16.0344 12.8611C16.3608 13.3737 16.202 14.0339 15.6904 14.3553Z" fill="white"/>
              </g>    
            </symbol>
            <symbol id="icon-lj" viewBox="0 0 24 24">
              <g>
                <path fill-rule="evenodd" clip-rule="evenodd" d="M0 12C0 5.3725 5.3725 0 12 0C18.6275 0 24 5.3725 24 12C24 18.6275 18.6275 24 12 24C5.3725 24 0 18.6275 0 12Z" fill="#1DB1E7"/>
                <path fill-rule="evenodd" clip-rule="evenodd" d="M5.10938 8.15012C5.71355 6.79876 6.79473 5.71758 8.14609 5.1134L9.55799 6.52531C10.3259 6.18106 11.1579 6.00301 11.9994 6.00283C13.2931 6.00239 14.5522 6.42019 15.589 7.19391C16.6258 7.96763 17.3847 9.0558 17.7525 10.2961C18.1203 11.5364 18.0772 12.8624 17.6297 14.0762C17.1823 15.29 16.3544 16.3267 15.2696 17.0315C14.1847 17.7363 12.9011 18.0716 11.6102 17.9872C10.3193 17.9028 9.09021 17.4033 8.10636 16.5633C7.12252 15.7233 6.4366 14.5877 6.15094 13.3259C5.86528 12.0642 5.99518 10.7439 6.52127 9.56202L5.10938 8.15012ZM6.52128 9.56203L11.4629 14.5037C12.0671 13.1523 13.1483 12.0711 14.4997 11.4669L9.55799 6.52532C8.20663 7.12949 7.12545 8.21067 6.52128 9.56203ZM14.854 12.9596C14.0399 13.3806 13.3766 14.0439 12.9556 14.858L15.3174 15.3214L14.854 12.9596Z" fill="white"/>
              </g>
            </symbol>
            <symbol id="icon-li" viewBox="0 0 24 24">
              <g>
                <path fill-rule="evenodd" clip-rule="evenodd" d="M0 12C0 5.3725 5.3725 0 12 0C18.6275 0 24 5.3725 24 12C24 18.6275 18.6275 24 12 24C5.3725 24 0 18.6275 0 12Z" fill="#36869D"/>
                <path fill-rule="evenodd" clip-rule="evenodd" d="M8.90681 6.74866H6.74805V17.2504H13.1V15.1895H8.90681V6.74866ZM15.2114 10.9579V17.2514H17.2529V10.9579H15.2114ZM15.2118 6.74976H17.2498V8.78736H15.2118V6.74976Z" fill="white"/>
              </g>
            </symbol>  

            <symbol id="icon-sad-smile" viewBox="0 0 24 24">
              <g>
                <path fill-rule="evenodd" clip-rule="evenodd" d="M23 12.5C23 18.299 18.299 23 12.5 23C6.70101 23 2 18.299 2 12.5C2 6.70101 6.70101 2 12.5 2C18.299 2 23 6.70101 23 12.5ZM22 12.5C22 17.7467 17.7467 22 12.5 22C7.25329 22 3 17.7467 3 12.5C3 7.25329 7.25329 3 12.5 3C17.7467 3 22 7.25329 22 12.5ZM8.77302 17.8277C9.7719 16.6767 11.0835 16 12.5 16C13.9165 16 15.2281 16.6767 16.227 17.8277C16.408 18.0363 16.7238 18.0586 16.9323 17.8776C17.1409 17.6966 17.1632 17.3808 16.9822 17.1723C15.8268 15.8409 14.2536 15 12.5 15C10.7464 15 9.17321 15.8409 8.01777 17.1723C7.83678 17.3808 7.85912 17.6966 8.06767 17.8776C8.27623 18.0586 8.59202 18.0363 8.77302 17.8277ZM10 10C10 10.5523 9.55228 11 9 11C8.44772 11 8 10.5523 8 10C8 9.44772 8.44772 9 9 9C9.55228 9 10 9.44772 10 10ZM16 11C16.5523 11 17 10.5523 17 10C17 9.44772 16.5523 9 16 9C15.4477 9 15 9.44772 15 10C15 10.5523 15.4477 11 16 11Z" fill="#FA385D"/>
              </g>
            </symbol>
            <symbol id="icon-neutral-smile" viewBox="0 0 24 24">
              <g>
                <path fill-rule="evenodd" clip-rule="evenodd" d="M23 12.5C23 18.299 18.299 23 12.5 23C6.70101 23 2 18.299 2 12.5C2 6.70101 6.70101 2 12.5 2C18.299 2 23 6.70101 23 12.5ZM22 12.5C22 17.7467 17.7467 22 12.5 22C7.25329 22 3 17.7467 3 12.5C3 7.25329 7.25329 3 12.5 3C17.7467 3 22 7.25329 22 12.5ZM8.5 16C8.22386 16 8 16.2239 8 16.5C8 16.7761 8.22386 17 8.5 17H16.5C16.7761 17 17 16.7761 17 16.5C17 16.2239 16.7761 16 16.5 16H8.5ZM10 10C10 10.5523 9.55228 11 9 11C8.44772 11 8 10.5523 8 10C8 9.44772 8.44772 9 9 9C9.55228 9 10 9.44772 10 10ZM16 11C16.5523 11 17 10.5523 17 10C17 9.44772 16.5523 9 16 9C15.4477 9 15 9.44772 15 10C15 10.5523 15.4477 11 16 11Z" fill="#898B8C"/>
              </g>
            </symbol>
            <symbol id="icon-funny-smile" viewBox="0 0 24 24">
              <g>
                <path fill-rule="evenodd" clip-rule="evenodd" d="M23 12.5C23 18.299 18.299 23 12.5 23C6.70101 23 2 18.299 2 12.5C2 6.70101 6.70101 2 12.5 2C18.299 2 23 6.70101 23 12.5ZM22 12.5C22 17.7467 17.7467 22 12.5 22C7.25329 22 3 17.7467 3 12.5C3 7.25329 7.25329 3 12.5 3C17.7467 3 22 7.25329 22 12.5ZM16.227 15.1723C15.2281 16.3233 13.9165 17 12.5 17C11.0835 17 9.7719 16.3233 8.77302 15.1723C8.59202 14.9637 8.27623 14.9414 8.06767 15.1224C7.85912 15.3034 7.83678 15.6192 8.01777 15.8277C9.17321 17.1591 10.7464 18 12.5 18C14.2536 18 15.8268 17.1591 16.9822 15.8277C17.1632 15.6192 17.1409 15.3034 16.9323 15.1224C16.7238 14.9414 16.408 14.9637 16.227 15.1723ZM10 10C10 10.5523 9.55228 11 9 11C8.44772 11 8 10.5523 8 10C8 9.44772 8.44772 9 9 9C9.55228 9 10 9.44772 10 10ZM16 11C16.5523 11 17 10.5523 17 10C17 9.44772 16.5523 9 16 9C15.4477 9 15 9.44772 15 10C15 10.5523 15.4477 11 16 11Z" fill="#43A396"/>
              </g>
            </symbol>
            <symbol id="icon-lifehack" viewBox="0 0 37 33">
              <g>
                <path fill-rule="evenodd" clip-rule="evenodd" d="M4.95904 0.22329C5.25676 -0.0744302 5.73946 -0.0744301 6.03718 0.223291L8.30128 2.48739C8.599 2.78511 8.599 3.26781 8.30128 3.56553C8.00355 3.86325 7.52085 3.86325 7.22313 3.56553L4.95904 1.30143C4.66132 1.00371 4.66132 0.521011 4.95904 0.22329ZM31.9126 0.22329C31.6149 -0.0744302 31.1322 -0.0744301 30.8344 0.223291L28.5703 2.48739C28.2726 2.78511 28.2726 3.26781 28.5703 3.56553C28.8681 3.86325 29.3508 3.86325 29.6485 3.56553L31.9126 1.30143C32.2103 1.00371 32.2103 0.521011 31.9126 0.22329ZM7.76261 13.7001C7.76261 7.81467 12.5502 3.02704 18.4357 3.02704C24.3211 3.02704 29.1087 7.81467 29.1087 13.7001C29.1087 17.0259 27.5847 19.9803 25.2057 21.9412L25.1563 21.9817C24.8037 22.2706 24.5346 22.4911 24.5346 23.3368V25.8979C24.5346 26.7365 23.8484 27.4226 23.0098 27.4226H23.0096L23.0095 27.4323H23.0097L23.0098 28.9571C23.0098 30.6962 21.7233 32.0065 19.9603 32.0065H16.9109C15.1241 32.0065 13.8614 30.7081 13.8614 28.9571V27.4323H13.8615L13.8614 27.4228V27.4226C13.0229 27.4226 12.3368 26.7364 12.3368 25.8979V23.3368C12.3368 22.4939 12.0417 22.2509 11.6844 21.9567L11.6657 21.9412C9.28664 19.9803 7.76261 17.0259 7.76261 13.7001ZM15.3861 27.4226V27.4228L15.3861 27.4323H15.3861L15.3861 28.9571C15.3861 29.7194 16.1485 30.4818 16.9109 30.4818L19.9603 30.4818C20.7227 30.4818 21.485 29.7194 21.485 28.9571L21.485 27.4375L21.4849 27.4226H15.3861ZM23.0051 23.2537C22.9796 22.9015 22.8965 21.7523 23.9747 20.9544C25.1659 20.073 27.584 17.6787 27.584 13.7001C27.584 8.28019 23.117 4.55177 18.4357 4.55177C13.7543 4.55177 9.28733 8.33975 9.28733 13.7001C9.28733 17.774 11.8177 20.2439 12.8966 20.9544C13.8992 21.6147 13.8717 22.8583 13.8627 23.2603C13.8621 23.2909 13.8615 23.3166 13.8615 23.3368V25.1299C13.8615 25.6477 14.1355 25.8979 14.6239 25.8979H22.2832C22.8312 25.8979 23.0098 25.6001 23.0098 25.1299V23.3368C23.0098 23.3187 23.0078 23.2906 23.0051 23.2537ZM31.9126 26.0988C32.2103 26.3965 32.2103 26.8792 31.9126 27.1769C31.6149 27.4746 31.1322 27.4746 30.8345 27.1769L28.5704 24.9128C28.2726 24.6151 28.2726 24.1324 28.5704 23.8347C28.8681 23.537 29.3508 23.537 29.6485 23.8347L31.9126 26.0988ZM36.8454 8.76703C36.7365 8.36034 36.3184 8.11899 35.9117 8.22796L32.8189 9.05668C32.4122 9.16565 32.1709 9.58368 32.2799 9.99038C32.3888 10.3971 32.8069 10.6384 33.2136 10.5294L36.3064 9.70073C36.7131 9.59176 36.9544 9.17373 36.8454 8.76703ZM36.3063 17.699C36.713 17.8079 36.9543 18.226 36.8454 18.6327C36.7364 19.0394 36.3184 19.2807 35.9117 19.1717L32.8189 18.343C32.4122 18.234 32.1708 17.816 32.2798 17.4093C32.3888 17.0026 32.8068 16.7613 33.2135 16.8703L36.3063 17.699ZM4.95901 26.0988C4.66129 26.3965 4.66129 26.8792 4.95901 27.1769C5.25673 27.4746 5.73943 27.4746 6.03715 27.1769L8.30125 24.9128C8.59897 24.6151 8.59897 24.1324 8.30125 23.8347C8.00353 23.537 7.52083 23.537 7.22311 23.8347L4.95901 26.0988ZM0.026166 8.76703C0.135139 8.36034 0.55317 8.11899 0.959864 8.22796L4.05268 9.05668C4.45937 9.16565 4.70072 9.58368 4.59175 9.99038C4.48278 10.3971 4.06475 10.6384 3.65805 10.5294L0.565237 9.70073C0.158543 9.59176 -0.0828073 9.17373 0.026166 8.76703ZM0.565317 17.699C0.158623 17.8079 -0.0827272 18.226 0.0262461 18.6327C0.135219 19.0394 0.55325 19.2807 0.959944 19.1717L4.05276 18.343C4.45945 18.234 4.7008 17.816 4.59183 17.4093C4.48286 17.0026 4.06483 16.7613 3.65813 16.8703L0.565317 17.699Z" fill="#B3AF8E"/>
              </g>                  
            </symbol>
            <symbol id="icon-book-exchange" viewBox="0 0 26 32">
              <g>
                <path fill-rule="evenodd" clip-rule="evenodd" d="M5.33327 26.6667H2.66667C1.14583 26.6667 -4.51997e-06 25.5 0 24V2.66667C0 1.14583 1.125 0 2.66667 0H5.33327H17.3333H17.3333C18.8958 0 20 1.13542 20 2.66667V5.3334H22.6666C23.5654 5.3334 24.3125 5.7091 24.7851 6.31972C25.1341 6.77065 25.3334 7.34974 25.3334 8.00028V29.3336C25.3334 30.818 24.2292 32.0003 22.6667 32.0003H8.00007C6.47924 32.0003 5.3334 30.8336 5.3334 29.3336V26.6667H5.33327ZM6.66674 26.6667V29.3336C6.66674 30.0003 7.3334 30.667 8.00007 30.667H8.33947C8.12203 30.2773 7.99991 29.8231 7.99991 29.3334V26.6667H6.66674ZM9.33324 26.6667V29.3334C9.33324 30.0001 9.99991 30.6667 10.6666 30.6667H22.6666C23.3333 30.6667 23.9999 30.0001 23.9999 29.3334V8.00007C23.9999 7.75007 23.9062 7.50007 23.7538 7.28522C23.7284 7.24942 23.7014 7.21459 23.6729 7.1809C23.4166 6.87778 23.0417 6.66694 22.6667 6.66694H20V24C20 25.2761 19.184 26.329 17.9622 26.5993C17.7628 26.6434 17.5526 26.6667 17.3333 26.6667H17.3333H9.33324ZM1.33333 2.66667V24C1.33333 24.6667 2 25.3333 2.66667 25.3333H3.00604C2.78868 24.9437 2.6666 24.4896 2.6666 24V2.66667C2.6666 2.17417 2.78458 1.721 2.99648 1.33333H2.66667C2 1.33333 1.33333 2 1.33333 2.66667ZM18.6666 24C18.6666 24.6667 17.9999 25.3333 17.3333 25.3333H5.33327C4.6666 25.3333 3.99994 24.6667 3.99994 24V2.66667C3.99994 2 4.6666 1.33333 5.33327 1.33333H17.3333C17.9999 1.33333 18.6666 2 18.6666 2.66667V24ZM7.33327 8C6.96508 8 6.6666 8.29848 6.6666 8.66667C6.6666 9.03486 6.96508 9.33334 7.33327 9.33334H15.3333C15.7015 9.33334 15.9999 9.03486 15.9999 8.66667C15.9999 8.29848 15.7015 8 15.3333 8H7.33327ZM8 12.6667C8 12.2985 8.29848 12 8.66667 12H14C14.3682 12 14.6667 12.2985 14.6667 12.6667C14.6667 13.0349 14.3682 13.3333 14 13.3333H8.66667C8.29848 13.3333 8 13.0349 8 12.6667Z" fill="#B3AF8E"/>
              </g>    
            </symbol>


          </svg>
